<svg width="318" height="42" viewBox="0 0 318 42">
  <g id="checked_logo">
    <path id="BOX1" d="M201 7.47222H229C230.396 7.47222 231.528 8.60395 231.528 10V38C231.528 39.3961 230.396 40.5278 229 40.5278H201C199.604 40.5278 198.472 39.3961 198.472 38V10C198.472 8.60395 199.604 7.47222 201 7.47222Z"/>
    <path id="BOX3" d="M287 7.47222H315C316.396 7.47222 317.528 8.60395 317.528 10V38C317.528 39.3961 316.396 40.5278 315 40.5278H287C285.604 40.5278 284.472 39.3961 284.472 38V10C284.472 8.60395 285.604 7.47222 287 7.47222Z"/>
    <path id="BOX2" d="M244 7.47222H272C273.396 7.47222 274.528 8.60395 274.528 10V38C274.528 39.3961 273.396 40.5278 272 40.5278H244C242.604 40.5278 241.472 39.3961 241.472 38V10C241.472 8.60395 242.604 7.47222 244 7.47222Z"/>
    <path id="check" d="M244.508 18.4861L256.171 33.0629M271.372 0.605461L256.372 34.6055"/>
    <g id="CHECKED">
      <path
        id="D"
        d="M159.675 41.0035L159.67 6.87846L168.693 6.87723C172.678 6.87668 175.85 8.14188 178.209 10.6728C180.585 13.2037 181.796 16.6723 181.844 21.0786L181.844 26.6098C181.845 31.0942 180.658 34.6178 178.283 37.1806C175.924 39.7278 172.667 41.0017 168.51 41.0023L159.675 41.0035ZM166.561 12.6197L166.564 35.2838L168.627 35.2835C170.924 35.2832 172.541 34.6814 173.478 33.4781C174.416 32.2593 174.907 30.1654 174.954 27.1967L174.953 21.267C174.953 18.0795 174.507 15.8608 173.616 14.6109C172.725 13.3454 171.21 12.6816 169.069 12.6194L166.561 12.6197Z"/>
      <path id="E2" d="M153.079 26.2352L142.344 26.2367L142.346 35.2835L155.049 35.2818L155.05 41.0005L135.456 41.0032L135.451 6.87822L154.998 6.87555L154.999 12.6177L142.343 12.6195L142.344 20.682L153.078 20.6805L153.079 26.2352Z"/>
      <path id="K" d="M118.563 27.8302L115.845 31.2525L115.846 41.0025L108.956 41.0034L108.951 6.87843L115.842 6.87749L115.844 21.7603L118.023 18.0803L124.373 6.87632L132.811 6.87517L123.039 21.8765L132.979 41.0001L124.8 41.0013L118.563 27.8302Z"/>
      <path
        id="C2"
        d="M104.689 29.6331C104.517 33.5238 103.424 36.4692 101.409 38.4695C99.3932 40.4698 96.5496 41.4702 92.8777 41.4707C89.0184 41.4712 86.0572 40.206 83.9944 37.675C81.9472 35.1284 80.9232 31.5036 80.9226 26.8004L80.9218 21.0583C80.9212 16.3708 81.9832 12.7612 84.1078 10.2297C86.2325 7.68252 89.1854 6.40868 92.9667 6.40817C96.6854 6.40766 99.5059 7.44634 101.428 9.5242C103.366 11.6021 104.468 14.5863 104.734 18.4769L97.8199 18.4778C97.7571 16.0716 97.3818 14.4154 96.6942 13.5092C96.0222 12.5874 94.78 12.1267 92.9675 12.1269C91.1237 12.1272 89.8191 12.7758 89.0537 14.0728C88.2882 15.3541 87.8823 17.4714 87.8358 20.4245L87.8367 26.8698C87.8371 30.2604 88.2125 32.5885 88.9626 33.854C89.7284 35.1195 91.0332 35.7522 92.8769 35.7519C94.6894 35.7517 95.9394 35.314 96.6268 34.4389C97.3141 33.5482 97.7046 31.9466 97.798 29.6341L104.689 29.6331Z"/>
      <path id="E" d="M75.3183 26.2352L64.5839 26.2367L64.5851 35.2835L77.2883 35.2818L77.2891 41.0005L57.6953 41.0032L57.6906 6.87822L77.2375 6.87555L77.2383 12.6177L64.5821 12.6195L64.5832 20.682L75.3175 20.6805L75.3183 26.2352Z"/>
      <path id="H" d="M52.4324 41.0004L45.5652 41.0013L45.5632 26.3997L35.3913 26.4011L35.3933 41.0027L28.5027 41.0036L28.498 6.87862L35.3886 6.87768L35.3905 20.6824L45.5624 20.681L45.5605 6.87629L52.4277 6.87535L52.4324 41.0004Z"/>
      <path
        id="C"
        d="M24.6886 29.6331C24.5173 33.5238 23.4239 36.4692 21.4086 38.4695C19.3932 40.4698 16.5496 41.4702 12.8777 41.4707C9.01835 41.4712 6.05724 40.206 3.9944 37.675C1.94717 35.1284 0.923241 31.5036 0.922599 26.8004L0.921814 21.0583C0.921174 16.3708 1.98318 12.7612 4.10783 10.2297C6.23249 7.68252 9.18544 6.40868 12.9667 6.40817C16.6854 6.40766 19.5059 7.44634 21.4281 9.5242C23.3658 11.6021 24.4678 14.5863 24.734 18.4769L17.8199 18.4778C17.7571 16.0716 17.3818 14.4154 16.6942 13.5092C16.0222 12.5874 14.78 12.1267 12.9675 12.1269C11.1237 12.1272 9.81912 12.7758 9.05367 14.0728C8.28822 15.3541 7.88226 17.4714 7.83579 20.4245L7.83667 26.8698C7.83713 30.2604 8.21245 32.5885 8.96263 33.854C9.72842 35.1195 11.0332 35.7522 12.8769 35.7519C14.6894 35.7517 15.9394 35.314 16.6268 34.4389C17.3141 33.5482 17.7046 31.9466 17.798 29.6341L24.6886 29.6331Z"/>
    </g>
  </g>
</svg>
